<?xml version="1.0" encoding="UTF-8"?>
<svg id="Capa_2" data-name="Capa 2" xmlns="http://www.w3.org/2000/svg" viewBox="0 0 189.6 89.05">
  <defs>
    <style>
      .cls-1 {
        fill: #000;
      }
    </style>
  </defs>
  <g id="Capa_2-2" data-name="Capa 2">
    <g>
      <path class="cls-1" d="M47.55,89.02c-6.89,0-13.24-1.08-19.03-3.22-5.8-2.15-10.82-5.21-15.08-9.18s-7.56-8.67-9.91-14.11c-2.35-5.43-3.53-11.43-3.53-18s1.17-12.57,3.53-18c2.35-5.43,5.67-10.13,9.97-14.11,4.3-3.97,9.38-7.03,15.26-9.18,5.88-2.15,12.34-3.22,19.4-3.22,8.43,0,15.95,1.42,22.56,4.26s12.06,6.89,16.36,12.16l-18.36,16.18c-2.68-3.08-5.58-5.41-8.7-6.99s-6.59-2.37-10.4-2.37c-3.16,0-6.02.49-8.57,1.46s-4.72,2.39-6.51,4.26c-1.78,1.87-3.16,4.1-4.13,6.69-.97,2.6-1.46,5.55-1.46,8.88s.49,6.06,1.46,8.7,2.35,4.89,4.13,6.75c1.78,1.87,3.91,3.3,6.39,4.32,2.47,1.01,5.25,1.52,8.33,1.52,3.24,0,6.4-.55,9.49-1.64,3.08-1.09,6.36-2.98,9.85-5.66l16.05,19.7c-5.19,3.49-11.11,6.16-17.76,8.03-6.65,1.86-13.1,2.8-19.34,2.8v-.03ZM59.71,74.55v-32.35h24.93v36l-24.93-3.65Z"/>
      <path class="cls-1" d="M141.68,89.02c-6.97,0-13.4-1.09-19.28-3.28-5.88-2.19-10.97-5.29-15.26-9.3-4.3-4.01-7.64-8.74-10.03-14.17s-3.59-11.35-3.59-17.76,1.2-12.42,3.59-17.82c2.39-5.39,5.73-10.09,10.03-14.11,4.3-4.01,9.38-7.11,15.26-9.3,5.88-2.19,12.26-3.28,19.16-3.28s13.38,1.09,19.22,3.28c5.84,2.19,10.9,5.29,15.2,9.3,4.3,4.01,7.64,8.72,10.03,14.11s3.59,11.33,3.59,17.82-1.2,12.33-3.59,17.76-5.74,10.15-10.03,14.17c-4.3,4.01-9.36,7.11-15.2,9.3s-12.2,3.28-19.09,3.28h-.01ZM141.56,65.79c2.68,0,5.17-.49,7.48-1.46s4.34-2.37,6.08-4.2c1.74-1.82,3.1-4.05,4.07-6.69.97-2.63,1.46-5.61,1.46-8.94s-.49-6.3-1.46-8.94c-.97-2.63-2.33-4.86-4.07-6.69-1.74-1.82-3.77-3.22-6.08-4.2s-4.8-1.46-7.48-1.46-5.17.49-7.48,1.46c-2.31.97-4.34,2.37-6.08,4.2-1.74,1.82-3.1,4.06-4.07,6.69-.97,2.64-1.46,5.62-1.46,8.94s.49,6.31,1.46,8.94c.97,2.64,2.33,4.87,4.07,6.69,1.74,1.82,3.77,3.22,6.08,4.2,2.31.97,4.8,1.46,7.48,1.46Z"/>
    </g>
  </g>
</svg>