<?xml version="1.0" encoding="UTF-8"?>
<svg id="Capa_2" data-name="Capa 2" xmlns="http://www.w3.org/2000/svg" viewBox="0 0 457.84 290.82">
  <defs>
    <style>
      .cls-1 {
        fill: #fff;
      }

      .cls-2 {
        fill: #081029;
      }
    </style>
  </defs>
  <g id="Capa_1-2" data-name="Capa 1">
    <g>
      <rect class="cls-2" width="457.84" height="290.58"/>
      <g>
        <path class="cls-1" d="M74.28,140.1c-10.65,0-20.53-1.7-29.64-5.1-9.11-3.4-16.97-8.24-23.57-14.53-6.61-6.29-11.77-13.69-15.49-22.23-3.72-8.53-5.58-17.93-5.58-28.19s1.86-19.66,5.58-28.19,8.92-15.94,15.59-22.23c6.67-6.28,14.59-11.13,23.77-14.53C54.11,1.7,64.15,0,75.05,0c12.7,0,24.06,2.12,34.06,6.35,10.01,4.24,18.28,10.33,24.82,18.28l-24.25,21.94c-4.62-5-9.59-8.76-14.91-11.26s-11.26-3.75-17.8-3.75c-5.77,0-11.04.9-15.78,2.69-4.75,1.8-8.79,4.4-12.12,7.79-3.34,3.4-5.94,7.44-7.79,12.12-1.86,4.68-2.79,9.98-2.79,15.88s.93,10.84,2.79,15.59c1.86,4.75,4.46,8.82,7.79,12.22,3.33,3.4,7.34,6.03,12.03,7.89,4.68,1.86,9.85,2.79,15.49,2.79s11.16-.93,16.55-2.79c5.39-1.86,10.84-5.03,16.36-9.52l21.36,26.75c-7.7,5.52-16.62,9.75-26.75,12.7-10.14,2.95-20.08,4.43-29.83,4.43ZM97.18,117.97v-50.81h33.68v55.81l-33.68-5Z"/>
        <path class="cls-1" d="M223.04,140.1c-10.78,0-20.72-1.73-29.83-5.2-9.11-3.46-17.03-8.37-23.77-14.72-6.74-6.35-11.96-13.76-15.68-22.23-3.72-8.47-5.58-17.77-5.58-27.91s1.86-19.44,5.58-27.9c3.72-8.47,8.95-15.88,15.68-22.23,6.74-6.35,14.66-11.26,23.77-14.72,9.11-3.46,19.05-5.2,29.83-5.2s20.88,1.73,29.93,5.2c9.04,3.46,16.9,8.37,23.58,14.72,6.67,6.35,11.9,13.76,15.68,22.23,3.78,8.47,5.68,17.77,5.68,27.9s-1.89,19.47-5.68,28c-3.79,8.53-9.01,15.94-15.68,22.23-6.67,6.29-14.53,11.16-23.58,14.63s-19.02,5.2-29.93,5.2ZM223.04,108.54c5.13,0,9.91-.9,14.34-2.69,4.42-1.8,8.27-4.39,11.55-7.79,3.27-3.4,5.84-7.47,7.7-12.22,1.86-4.74,2.79-10.01,2.79-15.78s-.93-11.19-2.79-15.88c-1.86-4.68-4.43-8.72-7.7-12.12-3.27-3.4-7.12-6-11.55-7.79-4.43-1.8-9.21-2.69-14.34-2.69s-9.91.9-14.34,2.69c-4.43,1.8-8.28,4.4-11.55,7.79-3.27,3.4-5.84,7.44-7.7,12.12-1.86,4.68-2.79,9.98-2.79,15.88s.93,11.04,2.79,15.78c1.86,4.75,4.43,8.82,7.7,12.22,3.27,3.4,7.12,6,11.55,7.79,4.42,1.8,9.2,2.69,14.34,2.69Z"/>
      </g>
      <g>
        <path class="cls-1" d="M0,290.82v-134.71h38.11v104.5h64.28v30.21H0Z"/>
        <path class="cls-1" d="M117.39,290.82v-134.71h38.1v134.71h-38.1Z"/>
        <path class="cls-1" d="M182.63,290.82v-134.71h31.37l74.29,89.68h-14.82v-89.68h37.33v134.71h-31.37l-74.29-89.68h14.82v89.68h-37.34Z"/>
        <path class="cls-1" d="M375.46,261.37h82.38v29.44h-120.1v-134.71h105.65v29.44h-67.93v75.82ZM372.77,208.26h37.63v28.48h-37.63v-28.48Z"/>
      </g>
    </g>
  </g>
</svg>