<?xml version="1.0" encoding="UTF-8"?>
<svg id="Capa_2" data-name="Capa 2" xmlns="http://www.w3.org/2000/svg" viewBox="0 0 453.94 139.97">
  <defs>
    <style>
      .cls-1 {
        fill: #081029;
      }
    </style>
  </defs>
  <g id="Capa_1-2" data-name="Capa 1">
    <g>
      <g>
        <path class="cls-1" d="M47.55,119.83c-6.89,0-13.24-1.08-19.03-3.22-5.8-2.15-10.82-5.21-15.08-9.18-4.26-3.97-7.56-8.67-9.91-14.11-2.35-5.43-3.53-11.43-3.53-18s1.17-12.57,3.53-18c2.35-5.43,5.67-10.13,9.97-14.11,4.3-3.97,9.38-7.03,15.26-9.18,5.88-2.15,12.34-3.22,19.4-3.22,8.43,0,15.95,1.42,22.56,4.26,6.61,2.84,12.06,6.89,16.36,12.16l-18.36,16.18c-2.68-3.08-5.58-5.41-8.7-6.99-3.12-1.58-6.59-2.37-10.4-2.37-3.16,0-6.02.49-8.57,1.46s-4.72,2.39-6.51,4.26c-1.78,1.87-3.16,4.1-4.13,6.69-.97,2.6-1.46,5.55-1.46,8.88s.49,6.06,1.46,8.7c.97,2.64,2.35,4.89,4.13,6.75,1.78,1.87,3.91,3.3,6.39,4.32,2.47,1.01,5.25,1.52,8.33,1.52,3.24,0,6.4-.55,9.49-1.64,3.08-1.09,6.36-2.98,9.85-5.66l16.05,19.7c-5.19,3.49-11.11,6.16-17.76,8.03-6.65,1.86-13.1,2.8-19.34,2.8ZM59.71,105.36v-32.35h24.93v36l-24.93-3.65Z"/>
        <path class="cls-1" d="M141.68,119.83c-6.97,0-13.4-1.09-19.28-3.28-5.88-2.19-10.97-5.29-15.26-9.3-4.3-4.01-7.64-8.74-10.03-14.17-2.39-5.43-3.59-11.35-3.59-17.76s1.2-12.42,3.59-17.82c2.39-5.39,5.73-10.09,10.03-14.11,4.3-4.01,9.38-7.11,15.26-9.3,5.88-2.19,12.26-3.28,19.16-3.28s13.38,1.09,19.22,3.28c5.84,2.19,10.9,5.29,15.2,9.3,4.3,4.01,7.64,8.72,10.03,14.11,2.39,5.39,3.59,11.33,3.59,17.82s-1.2,12.33-3.59,17.76c-2.39,5.43-5.74,10.15-10.03,14.17-4.3,4.01-9.36,7.11-15.2,9.3-5.84,2.19-12.2,3.28-19.09,3.28ZM141.56,96.6c2.68,0,5.17-.49,7.48-1.46,2.31-.97,4.34-2.37,6.08-4.2,1.74-1.82,3.1-4.05,4.07-6.69.97-2.63,1.46-5.61,1.46-8.94s-.49-6.3-1.46-8.94c-.97-2.63-2.33-4.86-4.07-6.69-1.74-1.82-3.77-3.22-6.08-4.2s-4.8-1.46-7.48-1.46-5.17.49-7.48,1.46c-2.31.97-4.34,2.37-6.08,4.2-1.74,1.82-3.1,4.06-4.07,6.69-.97,2.64-1.46,5.62-1.46,8.94s.49,6.31,1.46,8.94c.97,2.64,2.33,4.87,4.07,6.69,1.74,1.82,3.77,3.22,6.08,4.2,2.31.97,4.8,1.46,7.48,1.46Z"/>
      </g>
      <g>
        <path class="cls-1" d="M261.63,139.12l22.22-64.95h15.2l-22.22,64.95h-15.2ZM296.46,63.48c-2.76,0-4.85-.83-6.27-2.49-1.42-1.66-1.97-3.67-1.63-6.02.4-2.76,1.68-5.07,3.85-6.93,2.17-1.86,4.8-2.8,7.88-2.8,2.68,0,4.75.79,6.23,2.37,1.48,1.58,2.05,3.51,1.72,5.78-.43,3-1.71,5.43-3.85,7.3-2.13,1.87-4.78,2.8-7.94,2.8Z"/>
        <path class="cls-1" d="M354.5,73.45c5.59,0,10.17,1.14,13.74,3.4,3.57,2.27,5.82,5.62,6.77,10.03.95,4.42.31,9.83-1.91,16.24l-12.35,36h-15.2l12.17-35.63c1.81-5.27,1.91-9.38.31-12.35-1.6-2.96-5.08-4.44-10.43-4.44s-10.44,1.54-14.53,4.62c-4.09,3.08-7.24,7.78-9.44,14.11l-11.65,33.69h-15.2l22.22-64.95h14.47l-6.3,18.49-1.59-5.84c3.74-4.62,8.1-8.01,13.07-10.16,4.97-2.15,10.25-3.22,15.85-3.22Z"/>
        <path class="cls-1" d="M412.68,139.97c-6.49,0-11.95-1.19-16.39-3.59-4.44-2.39-7.67-5.72-9.69-9.97-2.03-4.26-2.62-9.26-1.8-15.02,1.06-7.38,3.62-13.9,7.68-19.58,4.06-5.67,9.14-10.16,15.25-13.44,6.11-3.28,12.77-4.93,19.98-4.93,6.08,0,11.19,1.14,15.32,3.4,4.13,2.27,7.13,5.53,8.99,9.79,1.86,4.26,2.37,9.35,1.52,15.26-.22,1.54-.53,3.12-.92,4.74-.4,1.62-.86,3.12-1.38,4.5h-55.09l3.15-10.09h46.22l-6.69,3.4c1.24-4.14,1.45-7.58.63-10.34-.82-2.76-2.46-4.87-4.93-6.32-2.47-1.46-5.57-2.19-9.29-2.19-4.46,0-8.48,1.03-12.06,3.1-3.58,2.07-6.54,4.99-8.86,8.76-2.33,3.77-3.85,8.17-4.57,13.19-.76,5.27.18,9.33,2.81,12.16,2.63,2.84,7.15,4.26,13.56,4.26,3.65,0,7.22-.59,10.71-1.76,3.49-1.17,6.49-2.82,8.98-4.93l4.8,10.58c-3.84,3-8.19,5.25-13.07,6.75-4.88,1.5-9.83,2.25-14.86,2.25Z"/>
      </g>
      <path class="cls-1" d="M196.04,138.89L244.7,0h29.49l-48.66,138.89h-29.49Z"/>
    </g>
  </g>
</svg>